<svg viewBox="0 0 577.6299 262.3937" xmlns="http://www.w3.org/2000/svg"><g fill="#1d1d1b"><path d="m304.1024 128.688v-54.2636h8.8912c4.946 0 8.8059.8601 11.6119 2.559 4.9348 3.0213 7.4075 7.795 7.4075 14.3212 0 6.9133-2.8277 11.8052-8.483 14.6545-2.8487 1.4299-6.5045 2.1395-10.9446 2.1395h-4.1178v20.5894zm4.3653-24.3741h4.526c3.4623 0 6.3116-.6021 8.5585-1.8063 3.9564-2.0858 5.9349-5.8273 5.9349-11.2031 0-5.1607-1.8387-8.8594-5.5156-11.1171-2.1938-1.3118-5.1396-1.9675-8.8059-1.9675h-4.6979z"/><path d="m374.0792 74.4277h4.3652v54.2527h-4.3652z"/><path d="m423.3139 128.6836v-54.2526h24.535l-1.6452 3.7846h-18.5252v20.7506h18.1059v3.7846h-18.1059v22.1483h20.826v3.7845z"/><path d="m490.8245 128.6836v-54.2526h4.3646v50.4681h20.5786v3.7845z"/><path d="m303.8262 194.9469 2.9458-5.5154c4.2576 2.7845 8.7948 4.1823 13.6115 4.1823 3.688 0 6.7086-.8278 9.096-2.4728 2.3762-1.6558 3.5692-4.2254 3.5692-7.709 0-2.7309-.9568-5.1284-2.8598-7.1927-1.9031-2.0537-4.2038-3.8061-6.9022-5.236-2.6991-1.4193-5.387-2.8922-8.0854-4.4189-2.6991-1.5269-4.9998-3.5695-6.9028-6.1393-1.9031-2.5696-2.8493-5.5692-2.8493-8.999 0-4.5695 1.6452-8.3541 4.946-11.3752 3.3008-3.0104 7.8058-4.5157 13.515-4.5157 5.2682 0 9.8053.9461 13.6115 2.8492v6.5692c-4.064-2.2792-8.5369-3.4298-13.4179-3.4298-3.1722 0-5.8601.7634-8.0427 2.2901-2.1931 1.5267-3.2897 3.8384-3.2897 6.9457 0 2.6018.9568 4.8918 2.8598 6.8595 1.9031 1.9675 4.2038 3.6662 6.9028 5.0854 2.6879 1.4299 5.3863 2.9245 8.0847 4.4727 2.6991 1.559 4.9998 3.6663 6.9028 6.3328 1.9031 2.6664 2.8598 5.8058 2.8598 9.4292 0 5.2037-1.8276 9.2894-5.4723 12.2783-3.6558 2.9781-8.5264 4.4727-14.6115 4.4727-6.4186 0-11.902-1.5912-16.4713-4.7631"/><path d="m347.1293 198.7553 23.804-62.9185h4.8489l23.9871 62.9185h-7.6122l-6.1823-16.8478h-25.2339l-6.1823 16.8478h-7.4291zm15.8052-22.7506h20.7505l-6.473-18.0841c-1.3971-3.8061-2.6341-7.4293-3.709-10.8484h-.1936c-.6346 1.9031-1.9031 5.5156-3.8061 10.8484z"/><path d="m461.3547 198.754h-5.9028l-30.0722-39.7916c-3.0534-3.9244-5.9999-7.9563-8.8597-12.0849h-.1824c.1824 3.1072.2796 6.6983.2796 10.7516v41.1249h-7.0426v-62.7249h6.7631l28.9324 38.2651c2.978 3.9351 6.0314 8.1497 9.1386 12.6547h.1831c-.1181-2.2148-.1831-5.9026-.1831-11.042v-39.8778h6.9462v62.7249z"/><path d="m471.1535 198.7553 23.804-62.9185h4.8489l23.9871 62.9185h-7.6122l-6.1823-16.8478h-25.2339l-6.1823 16.8478h-7.4291zm15.8052-22.7506h20.7505l-6.473-18.0841c-1.3971-3.8061-2.6341-7.4293-3.709-10.8484h-.1936c-.6346 1.9031-1.9031 5.5156-3.8061 10.8484z"/><path d="m56.8434 224.3676h208.1085v-171.0366h-208.1085v171.0367zm109.0754-142.8674c-.7094 1.6558-1.3006 3.3438-1.8171 5.0641-.1076-.1936-.1936-.3978-.3012-.6021-5.0851-9.3217-12.0844-16.7403-20.9868-22.2451-1.5054-.914-3.1184-1.7418-4.774-2.5266h45.2324c-2.1931 1.4084-4.2359 2.9675-6.1068 4.6554-4.9355 4.4297-8.6878 9.6441-11.2464 15.6543m-12.2893 37.5232c0 10.171-1.9031 18.9121-5.698 26.2232-3.8061 7.3112-9.4936 12.988-17.0954 17.0091-3.795 2.1288-8.3859 3.8168-13.7617 5.0856-5.387 1.2793-11.7734 1.9137-19.1487 1.9137h-17.4176v-100.7749h18.041c7.8163 0 14.4068.6881 19.7826 2.0643 5.387 1.3869 10.0744 3.2362 14.0958 5.5694 6.7414 4.2361 11.9663 10.0098 15.6648 17.3208 3.688 7.3112 5.5372 15.8479 5.5372 25.5889m-73.1213 64.8536h15.9017c9.5363 0 17.686-.7419 24.4812-2.2256 6.7736-1.4837 12.7085-3.4942 17.7936-6.0424 11.2359-5.5049 19.4932-13.2461 24.7936-23.202 3.9026-7.3327 6.3542-15.2996 7.3865-23.8901 3.7845 5.0856 8.2573 9.6119 13.4395 13.5578 6.3326 4.8275 13.2459 9.1173 20.761 12.8589 7.5046 3.7416 14.4291 7.6337 20.7505 11.6656 6.3332 4.0425 11.6224 8.7194 15.8695 14.0416 4.2471 5.3112 6.3759 11.816 6.3759 19.5034 0 5.709-1.0861 10.5904-3.247 14.6222-.3334.6128-.6989 1.1719-1.0644 1.7525h-163.2416zm167.7683-28.051c-6.3221-5.0101-13.2466-9.386-20.7512-13.1277-7.5151-3.7415-14.439-7.6229-20.761-11.6548s-11.6119-8.5475-15.859-13.5685c-4.2576-5.0103-6.3752-11.1603-6.3752-18.4392 0-5.3112 1.0427-9.7838 3.1177-13.418 2.075-3.6447 4.7524-6.5906 8.0211-8.8486 3.268-2.2686 7.0315-3.8921 11.2891-4.8705 4.2576-.9891 8.569-1.4729 12.9231-1.4729 7.5263 0 14.8484.9031 21.9875 2.7202 5.3542 1.3654 10.4288 3.1502 15.2238 5.322v85.6689c-2.6662-2.9998-5.6121-5.7736-8.8158-8.3111"/></g></svg>